<svg width="174" height="44" viewBox="0 0 174 44" fill="none" xmlns="http://www.w3.org/2000/svg"> <path d="M58.8674 20.7911C63.9594 20.7911 67.1989 17.5745 67.9181 12.6539H66.7186C66.0453 16.568 63.502 19.1113 59.4962 19.1113C54.8615 19.1113 52.5368 15.5115 52.5368 11.0483C52.5368 6.58503 55.0113 3.05409 59.113 3.05409C62.3079 3.05409 64.4438 5.23715 65.1359 8.55086H67.7764C66.7186 4.25356 63.359 2.04892 59.086 2.04892C53.5892 2.04892 49.6751 5.82002 49.6751 11.4598C49.6751 16.6935 53.0806 20.7965 58.8688 20.7965V20.7911H58.8674ZM79.2894 20.8653C85.0263 20.8653 89.0092 17.0712 89.0092 11.4315C89.0092 5.79168 85.0263 2.02058 79.2894 2.02058C73.5524 2.02058 69.5182 5.79168 69.5182 11.4031C69.5182 17.0146 73.5012 20.8599 79.2894 20.8599V20.8653ZM79.2894 3.00282C83.5637 3.00282 86.1516 6.50543 86.1516 11.4018C86.1516 16.2981 83.557 19.8534 79.2894 19.8534C75.0217 19.8534 72.3759 16.3508 72.3759 11.4315C72.3759 6.51217 74.9691 3.00957 79.2894 3.00957V3.00417V3.00282ZM97.8885 9.93922C94.9634 8.5738 93.3281 7.70489 93.3281 5.762C93.3281 4.03633 94.4534 2.9502 96.7106 2.9502C99.1622 2.9502 100.671 4.7042 100.985 7.17329H103.58C102.956 3.79077 100.22 1.96257 96.7619 1.96257C93.3038 1.96257 90.9791 3.59648 91.002 6.54455C91.002 9.28214 93.0879 10.5275 96.3045 12.0413C99.8071 13.6469 101.418 14.5617 101.418 16.653C101.395 18.716 99.9326 19.8466 97.6983 19.8466C94.7448 19.8466 93.0407 17.8525 92.8977 14.8072H90.2802C90.7146 18.7443 93.6856 20.8302 97.6227 20.8302C101.2 20.8302 103.743 19.0303 103.743 15.888C103.743 12.7456 101.388 11.6136 97.8858 9.93382V9.93922H97.8885ZM124.745 17.2359V5.50025C124.745 3.53442 124.911 2.88274 126.064 2.40376V2.28368H121.887L115.956 17.0429L109.933 2.28368H105.682V2.40376C106.858 2.88409 107.024 3.52902 107.024 5.50025V17.2372C107.024 19.083 106.858 19.8547 105.585 20.3337V20.4538H109.739V20.3337C108.442 19.8534 108.253 19.0884 108.253 17.2372V4.75817L114.905 20.6953H115.603L122.156 4.46809V17.2386C122.156 19.0843 121.961 19.8561 120.716 20.335V20.4551H126.116V20.335C124.916 19.8547 124.75 19.0897 124.75 17.2386H124.745V17.2359ZM137.607 20.8639C143.344 20.8639 147.327 17.0699 147.327 11.4301C147.327 5.79033 143.344 2.01923 137.607 2.01923C131.87 2.01923 127.836 5.79033 127.836 11.4018C127.836 17.0132 131.819 20.8585 137.607 20.8585V20.8639ZM137.607 3.00147C141.882 3.00147 144.469 6.50408 144.469 11.4004C144.469 16.2968 141.875 19.852 137.607 19.852C133.34 19.852 130.694 16.3494 130.694 11.4301C130.694 6.51082 133.288 3.00822 137.607 3.00822V3.00282V3.00147ZM156.017 19.852C153.064 19.852 151.361 17.8579 151.218 14.8126H148.601C149.035 18.7497 152.006 20.8356 155.943 20.8356C159.52 20.8356 162.063 19.0357 162.063 15.8934C162.063 12.751 159.709 11.619 156.206 9.93922C153.281 8.5738 151.646 7.70489 151.646 5.762C151.646 4.03633 152.773 2.9502 155.028 2.9502C157.48 2.9502 158.988 4.7042 159.303 7.17329H161.897C161.274 3.79077 158.538 1.96257 155.08 1.96257C151.622 1.96257 149.297 3.59648 149.32 6.54455C149.32 9.28214 151.406 10.5275 154.622 12.0413C158.125 13.6469 159.737 14.5617 159.737 16.653C159.714 18.716 158.252 19.8466 156.017 19.8466V19.852ZM49.891 24.1142C51.0904 24.5946 51.2847 25.2395 51.2847 27.2107V38.9477C51.2847 40.7934 51.0904 41.5652 49.891 42.0442V42.1642H55.3135V42.0442C54.1141 41.5638 53.9481 40.7988 53.9481 38.9477V27.2107C53.9481 25.2449 54.1141 24.5932 55.3135 24.1142V23.9942H49.891V24.1142ZM69.4049 24.1142C70.7015 24.6175 70.8904 25.4108 70.8904 27.3537V39.3538L60.9992 23.9942H57.7368V24.1142C58.719 24.5946 58.8391 25.2395 58.8391 27.2107V38.8047C58.8391 40.7475 58.6961 41.5422 57.5937 42.0442V42.1642H61.6509V42.0442C60.2854 41.5409 60.0682 40.7475 60.0682 38.8047V26.9476L69.8164 42.1642H72.1196V27.3537C72.1196 25.4108 72.2855 24.6161 73.3946 24.1142V23.9942H69.4116V24.1142H69.4062H69.4049ZM82.4101 31.651C79.485 30.2856 77.8497 29.4167 77.8497 27.4738C77.8497 25.7482 78.975 24.6688 81.2323 24.6688C83.6838 24.6688 85.1922 26.4228 85.5066 28.8919H88.0998C87.4778 25.5093 84.7402 23.6811 81.2835 23.6811C77.8268 23.6811 75.5007 25.315 75.5237 28.2645C75.5237 31.0021 77.6096 32.2474 80.8261 33.7612C84.3287 35.3668 85.9397 36.2816 85.9397 38.3729C85.9168 40.4359 84.4542 41.5665 82.2199 41.5665C79.2664 41.5665 77.5637 39.5724 77.4207 36.5272H74.8032C75.2376 40.4642 78.2086 42.5501 82.1457 42.5501C85.7225 42.5501 88.2658 40.7502 88.2658 37.6079C88.2658 34.4655 85.9114 33.3335 82.4088 31.6537L82.4101 31.651ZM88.8149 26.3027C91.4324 25.4851 93.0151 24.9089 94.4776 24.9089H94.6719V38.9477C94.6719 40.7934 94.4776 41.5652 93.3065 42.0442V42.1642H98.7061V42.0442C97.5067 41.5638 97.3407 40.7988 97.3407 38.9477V24.9089H97.5579C99.0205 24.9089 100.603 25.4864 103.175 26.3027V23.9995H88.8203V26.3027H88.8149ZM104.655 24.1142C105.854 24.5946 106.049 25.2395 106.049 27.2107V38.9477C106.049 40.7934 105.854 41.5652 104.655 42.0442V42.1642H110.077V42.0442C108.878 41.5638 108.712 40.7988 108.712 38.9477V27.2107C108.712 25.2449 108.878 24.5932 110.077 24.1142V23.9942H104.655V24.1142ZM111.591 26.3027C114.209 25.4851 115.791 24.9089 117.254 24.9089H117.448V38.9477C117.448 40.7934 117.254 41.5652 116.083 42.0442V42.1642H121.482V42.0442C120.283 41.5638 120.117 40.7988 120.117 38.9477V24.9089H120.334C121.797 24.9089 123.38 25.4864 125.951 26.3027V23.9995H111.598V26.3027H111.593H111.591ZM139.435 24.1142C140.635 24.5946 140.801 25.2395 140.801 27.2107V34.5532C140.801 39.4051 139.121 41.325 135.88 41.325C132.639 41.325 131.178 39.3309 131.178 34.5532V27.2107C131.178 25.2449 131.344 24.5932 132.543 24.1142V23.9942H127.144V24.1142C128.343 24.5946 128.509 25.2395 128.509 27.2107V34.5303C128.509 40.6504 131.291 42.5474 135.423 42.5474C139.554 42.5474 142.045 40.2443 142.045 34.5303V27.2107C142.045 25.2449 142.211 24.5932 143.41 24.1142V23.9942H139.427V24.1142H139.433H139.435ZM144.612 26.3027C147.23 25.4851 148.813 24.9089 150.275 24.9089H150.469V38.9477C150.469 40.7934 150.275 41.5652 149.104 42.0442V42.1642H154.504V42.0442C153.304 41.5638 153.138 40.7988 153.138 38.9477V24.9089H153.355C154.818 24.9089 156.401 25.4864 158.972 26.3027V23.9995H144.619V26.3027H144.614H144.612ZM167.149 41.2049H164.508V33.1419H165.851C167.193 33.1419 169.353 33.1878 171.273 33.4792V31.8453C169.353 32.0113 167.193 32.1826 165.851 32.1826H164.508V24.9602H166.622C168.159 24.9602 169.789 25.3947 172.525 26.2339V23.9995H160.474V24.1196C161.65 24.6 161.839 25.2449 161.839 27.2161V38.9531C161.839 40.7988 161.645 41.5706 160.474 42.0496V42.1696H173.05V39.7694C170.77 40.6315 168.97 41.209 167.147 41.209V41.2036L167.149 41.2049ZM21.5005 0.5C21.4897 0.5 21.4789 0.5 21.4681 0.5C21.4627 0.5 21.4586 0.5 21.4532 0.5H21.5005ZM25.6925 29.9348C25.6372 30.2101 25.9961 30.3693 26.1607 30.1412C29.2127 25.9155 35.2559 26.7763 39.8527 28.7934C40.3546 28.9769 40.6015 29.5435 40.3951 30.036C37.667 36.5447 31.532 41.2724 24.2219 41.9875C23.6633 42.0415 23.183 41.5976 23.1938 41.0363C23.2612 37.5418 23.5095 33.1217 24.3042 30.4057C25.1259 27.9393 26.4508 25.6321 28.0753 23.5961C28.0982 23.5961 28.1103 23.5449 28.1441 23.5327C30.937 19.6469 37.1853 17.1293 41.4704 14.8653C41.5325 14.8329 41.5635 14.7614 41.5473 14.6926C41.5271 14.6103 41.4448 14.559 41.3625 14.5792C38.6236 15.2444 35.5635 16.7515 31.841 17.0456C23.9615 17.3047 23.0669 9.49667 23.3435 3.21735C23.3665 2.6952 23.8104 2.29583 24.3325 2.32416C31.613 2.70869 37.4497 6.96956 40.6204 12.3166C40.6393 12.3489 40.6906 12.322 40.673 12.2882C36.9559 4.8027 29.3112 0.529683 21.4681 0.5C9.70415 0.51754 0.155641 9.98239 0.00182897 21.714C-0.153333 33.6587 9.58407 43.5162 21.5302 43.5C31.0652 43.4865 39.1444 37.2679 41.9481 28.6652C41.9926 28.5289 41.9197 28.3805 41.7848 28.3319L38.8408 27.2593C36.199 26.3931 35.3058 25.3974 35.3058 25.3974C34.0807 24.4057 32.9487 22.1471 32.6046 21.1284C32.5439 20.9462 32.3172 20.8842 32.1742 21.011C29.3827 23.4936 27.0377 26.4511 25.6925 29.9362V29.9348ZM18.3595 14.3269C15.0754 17.7513 9.16311 16.7353 4.91168 14.6656C4.44485 14.4389 4.2546 13.8749 4.48532 13.4094C7.49141 7.31766 13.6533 2.98393 20.8839 2.36059C21.4303 2.31337 21.8998 2.74242 21.9025 3.29021L21.916 7.20972C21.9552 16.6112 14.8353 24.971 5.80487 27.3295L4.33826 27.7302C3.84444 27.8651 3.33173 27.5777 3.19276 27.0852C3.09427 26.7398 3.0268 26.4363 3.0268 26.4363C2.20917 23.1833 2.3252 19.5808 3.29125 16.4128L3.34792 16.2617C3.52332 15.7962 4.03333 15.5493 4.50826 15.7004L4.60271 15.7301C8.61127 17.0294 11.307 18.3867 12.5159 22.4736L12.5186 22.4817C12.5645 22.6449 12.7561 22.7164 12.8978 22.6247C15.5652 20.8356 17.3826 18.0036 18.8735 15.2012V15.1985C18.9059 15.1176 19.1609 14.5819 19.4213 13.9802C19.5414 13.7022 19.1771 13.4688 18.9761 13.6968C18.5956 14.1272 18.3622 14.3296 18.3622 14.3296L18.3595 14.3269ZM20.6626 42.0266C16.1467 41.4303 11.7779 39.3363 8.39404 35.8579C7.38887 34.8163 4.62025 31.651 4.39357 29.8039C4.345 29.4019 4.55818 29.0133 4.92517 28.8433C16.5259 23.4855 23.2504 27.7288 21.8499 40.9837C21.8378 41.6124 21.2819 42.0792 20.6626 42.0266Z" fill="#acadbb"></path> </svg>
