<svg clip-rule="evenodd" fill-rule="evenodd" stroke-linejoin="round" stroke-miterlimit="2" viewBox="0 0 17 16" xmlns="http://www.w3.org/2000/svg" xmlns:xlink="http://www.w3.org/1999/xlink"><clipPath id="a"><path clip-rule="evenodd" d="m0 0h16v16h-16z"/></clipPath><g transform="translate(.14697)"><path d="m0 0h16v16h-16z" fill="none"/><g clip-path="url(#a)"><path d="m0 0h512v512h-512z" fill="#835da9" transform="matrix(.015625 0 0 .00520834 0 1.33333)"/><path d="m0 0h512v512h-512z" fill="#bba8ce" transform="matrix(.03125 0 0 .00520834 0 4.00000008)"/><path d="m0 0h512v512h-512z" fill="#ccbddb" transform="matrix(.03125 0 0 .00520834 0 6.66667016)"/><path d="m0 0h512v512h-512z" fill="#bba8ce" transform="matrix(.03125 0 0 .00520834 0 9.33334024)"/><path d="m0 0h512v512h-512z" fill="#ccbddb" transform="matrix(.03125 0 0 .00520834 0 12.00001032)"/></g></g></svg>