<?xml version="1.0" encoding="UTF-8" standalone="no"?>
<!DOCTYPE svg PUBLIC "-//W3C//DTD SVG 1.1//EN" "http://www.w3.org/Graphics/SVG/1.1/DTD/svg11.dtd">
<svg width="100%" height="100%" viewBox="0 0 17 16" version="1.1" xmlns="http://www.w3.org/2000/svg" xmlns:xlink="http://www.w3.org/1999/xlink" xml:space="preserve" xmlns:serif="http://www.serif.com/" style="fill-rule:evenodd;clip-rule:evenodd;stroke-linejoin:round;stroke-miterlimit:2;">
    <g transform="matrix(1,0,0,1,-5,-363)">
        <g id="favicon" transform="matrix(1,0,0,1,5.14697,363)">
            <rect x="0" y="0" width="16" height="16" style="fill:none;"/>
            <clipPath id="_clip1">
                <rect x="0" y="0" width="16" height="16"/>
            </clipPath>
            <g clip-path="url(#_clip1)">
                <g transform="matrix(0.03125,0,0,0.0260417,0,1.33333)">
                    <g id="favicon1" serif:id="favicon">
                        <g>
                            <g transform="matrix(0.5,0,0,0.2,1.25056e-12,0)">
                                <rect x="0" y="0" width="512" height="512" style="fill:rgb(131,93,169);"/>
                            </g>
                            <g transform="matrix(1,0,0,0.2,1.59162e-12,102.4)">
                                <rect x="0" y="0" width="512" height="512" style="fill:rgb(187,168,206);"/>
                            </g>
                            <g transform="matrix(1,0,0,0.2,2.27374e-13,204.8)">
                                <rect x="0" y="0" width="512" height="512" style="fill:rgb(204,189,219);"/>
                            </g>
                            <g transform="matrix(1,0,0,0.2,1.59162e-12,307.2)">
                                <rect x="0" y="0" width="512" height="512" style="fill:rgb(187,168,206);"/>
                            </g>
                            <g transform="matrix(1,0,0,0.2,1.59162e-12,409.6)">
                                <rect x="0" y="0" width="512" height="512" style="fill:rgb(204,189,219);"/>
                            </g>
                        </g>
                    </g>
                </g>
            </g>
        </g>
    </g>
</svg>
